<svg width="54" height="40" viewBox="0 0 54 40" fill="none" xmlns="http://www.w3.org/2000/svg">
<path fill-rule="evenodd" clip-rule="evenodd" d="M-1.6665 0H58.3335V40H-1.6665V0Z" fill="white"/>
<path fill-rule="evenodd" clip-rule="evenodd" d="M-1.6665 0H58.3335V20H-1.6665V0Z" fill="#DF0000"/>
<path fill-rule="evenodd" clip-rule="evenodd" d="M12.167 3.34997C10.5885 3.6892 9.17473 4.56117 8.16313 5.81949C7.15152 7.07781 6.60363 8.64586 6.61145 10.2604C6.61927 11.8749 7.18232 13.4376 8.20606 14.686C9.22981 15.9345 10.6519 16.7927 12.2336 17.1166C11.3275 17.3788 10.3786 17.4596 9.44117 17.3542C8.50379 17.2489 7.59642 16.9595 6.77112 16.5027C5.94581 16.0459 5.2188 15.4307 4.63177 14.6924C4.04475 13.954 3.60926 13.107 3.35029 12.2C2.83593 10.3767 3.06439 8.42397 3.98573 6.76868C4.90707 5.11339 6.44632 3.89023 8.26695 3.36664C9.60029 2.9833 10.8336 2.97497 12.1753 3.34997H12.167Z" fill="white"/>
<path fill-rule="evenodd" clip-rule="evenodd" d="M11.0837 9.16666L11.492 10.4167L10.4087 9.65L9.34199 10.4333L9.73366 9.16666L8.66699 8.39166L9.99199 8.375L10.4087 7.125L10.8253 8.375H12.142L11.0837 9.16666ZM12.542 13.5L12.9587 14.7583L11.8753 13.9917L10.8003 14.7667L11.2003 13.5083L10.1337 12.725L11.4587 12.7167L11.867 11.4583L12.2837 12.7083H13.617L12.542 13.5ZM17.417 13.4667L17.8253 14.7333L16.742 13.9583L15.6753 14.7333L16.067 13.475L15.0003 12.7L16.3253 12.6833L16.742 11.4333L17.1587 12.6833H18.4753L17.417 13.4667ZM18.867 9.16666L19.2753 10.425L18.192 9.65833L17.1253 10.4333L17.5253 9.175L16.4503 8.39166L17.7837 8.38333L18.1837 7.125L18.6003 8.375H19.9337L18.867 9.16666ZM15.0087 6.30833L15.4253 7.575L14.342 6.8L13.267 7.58333L13.667 6.31666L12.6003 5.53333L13.917 5.525L14.3337 4.26666L14.7503 5.51666H16.0837L15.0087 6.30833Z" fill="white"/>
</svg>
