<svg width="70" height="56" viewBox="0 0 70 56" fill="none" xmlns="http://www.w3.org/2000/svg">
<g filter="url(#filter0_d_1_384)">
<g clip-path="url(#clip0_1_384)">
<rect x="8" width="53.3333" height="40" rx="5.33333" fill="white"/>
<path d="M8 0H61.3333V40H8" fill="#BD3D44"/>
<path d="M8 4.60834H61.3333H8ZM8 10.75H61.3333H8ZM8 16.9167H61.3333H8ZM8 23.0833H61.3333H8ZM8 29.25H61.3333H8ZM8 35.4167H61.3333H8Z" fill="black"/>
<path d="M8 4.60834H61.3333M8 10.75H61.3333M8 16.9167H61.3333M8 23.0833H61.3333M8 29.25H61.3333M8 35.4167H61.3333" stroke="white" stroke-width="3.08333"/>
<path d="M8 0H38.4V21.5417H8" fill="#192F5D"/>
</g>
</g>
<defs>
<filter id="filter0_d_1_384" x="0" y="0" width="69.3335" height="56" filterUnits="userSpaceOnUse" color-interpolation-filters="sRGB">
<feFlood flood-opacity="0" result="BackgroundImageFix"/>
<feColorMatrix in="SourceAlpha" type="matrix" values="0 0 0 0 0 0 0 0 0 0 0 0 0 0 0 0 0 0 127 0" result="hardAlpha"/>
<feMorphology radius="8" operator="erode" in="SourceAlpha" result="effect1_dropShadow_1_384"/>
<feOffset dy="8"/>
<feGaussianBlur stdDeviation="8"/>
<feComposite in2="hardAlpha" operator="out"/>
<feColorMatrix type="matrix" values="0 0 0 0 0.392157 0 0 0 0 0.101961 0 0 0 0 0.678431 0 0 0 0.16 0"/>
<feBlend mode="normal" in2="BackgroundImageFix" result="effect1_dropShadow_1_384"/>
<feBlend mode="normal" in="SourceGraphic" in2="effect1_dropShadow_1_384" result="shape"/>
</filter>
<clipPath id="clip0_1_384">
<rect x="8" width="53.3333" height="40" rx="5.33333" fill="white"/>
</clipPath>
</defs>
</svg>
